Coordinates
version=1
nRows=43
nColumns=12
inDegrees=yes

Units are S.I. units (second, meters, Newtons, ...)
Angles are in degrees

endheader
time	SC_y	SC_z	SC_x	AC_y	AC_z	AC_x	GH_y	GH_z	GH_yy	EL_x	PS_y
       0.0              -49.85          33.64          6.409          53.79         -2.987         0.2212          49.57          48.12          100.9          103.1          135.8
   0.01674              -49.85          33.64          6.416           53.8         -2.988         0.2226          49.58          48.12          100.8          103.1          135.8
   0.03348              -49.84          33.64          6.424           53.8         -2.989         0.2241          49.58          48.12          100.8          103.1          135.8
   0.05022              -49.84          33.64          6.433           53.8         -2.989         0.2256          49.58          48.11          100.8          103.1          135.8
   0.06697              -49.84          33.64          6.442           53.8          -2.99         0.2273          49.58          48.11          100.7          103.1          135.8
   0.08371              -49.84          33.64          6.452          53.81         -2.991         0.2291          49.59           48.1          100.7          103.1          135.8
    0.1004              -49.84          33.63          6.462          53.81         -2.992         0.2311          49.59           48.1          100.6          103.0          135.8
    0.1172              -49.83          33.63          6.473          53.81         -2.993         0.2331          49.59          48.09          100.6          103.0          135.8
    0.1339              -49.83          33.63          6.485          53.81         -2.994         0.2353           49.6          48.09          100.5          103.0          135.8
    0.1507              -49.83          33.63          6.498          53.82         -2.995         0.2377           49.6          48.08          100.5          103.0          135.8
    0.1674              -49.83          33.63          6.511          53.82         -2.997         0.2403           49.6          48.07          100.4          103.0          135.8
    0.1842              -49.83          33.63          6.526          53.82         -2.998          0.243          49.61          48.06          100.3          103.0          135.8
    0.2009              -49.82          33.63          6.542          53.83           -3.0         0.2459          49.61          48.06          100.3          103.0          135.8
    0.2176              -49.82          33.62          6.559          53.83         -3.001         0.2491          49.62          48.05          100.2          103.0          135.8
    0.2344              -49.82          33.62          6.578          53.84         -3.003         0.2526          49.62          48.04          100.1          103.0          135.8
    0.2511              -49.81          33.62          6.598          53.84         -3.005         0.2563          49.63          48.03          100.0          103.0          135.8
    0.2679              -49.81          33.62           6.62          53.85         -3.007         0.2604          49.64          48.01           99.9          102.9          135.8
    0.2846               -49.8          33.62          6.643          53.86         -3.009         0.2648          49.64           48.0          99.79          102.9          135.8
    0.3013               -49.8          33.61          6.669          53.86         -3.012         0.2697          49.65          47.99          99.67          102.9          135.9
    0.3181              -49.79          33.61          6.698          53.87         -3.014          0.275          49.66          47.97          99.54          102.9          135.9
    0.3348              -49.79          33.61          6.729          53.88         -3.017         0.2808          49.67          47.96           99.4          102.9          135.9
    0.3516              -49.78           33.6          6.764          53.89         -3.021         0.2872          49.68          47.94          99.24          102.8          135.9
    0.3683              -49.77           33.6          6.802           53.9         -3.024         0.2942          49.69          47.92          99.07          102.8          135.9
    0.3851              -49.77           33.6          6.844          53.91         -3.028         0.3021           49.7           47.9          98.87          102.8          135.9
    0.4018              -49.76          33.59          6.891          53.92         -3.033         0.3108          49.72          47.87          98.66          102.7          135.9
    0.4185              -49.75          33.59          6.943          53.93         -3.037         0.3205          49.73          47.85          98.42          102.7          135.9
    0.4353              -49.74          33.58          7.001          53.95         -3.043         0.3314          49.75          47.82          98.15          102.7          136.0
     0.452              -49.72          33.57          7.067          53.97         -3.049         0.3436          49.77          47.78          97.85          102.6          136.0
    0.4688              -49.71          33.57          7.142          53.98         -3.056         0.3575          49.79          47.74          97.51          102.6          136.0
    0.4855              -49.69          33.56          7.226          54.01         -3.064         0.3732          49.82           47.7          97.13          102.5          136.0
    0.5022              -49.68          33.55          7.323          54.03         -3.073         0.3911          49.84          47.65          96.69          102.4          136.1
     0.519              -49.66          33.54          7.433          54.06         -3.084         0.4117          49.88          47.59          96.18          102.4          136.1
    0.5357              -49.63          33.53          7.561          54.09         -3.096         0.4354          49.91          47.52           95.6          102.3          136.1
    0.5525               -49.6          33.51           7.71          54.13          -3.11          0.463          49.96          47.45          94.92          102.2          136.2
    0.5692              -49.57          33.49          7.883          54.18         -3.126         0.4953          50.01          47.36          94.13          102.1          136.3
     0.586              -49.53          33.47          8.088          54.23         -3.145         0.5334          50.07          47.25          93.19          101.9          136.3
    0.6027              -49.49          33.45          8.332          54.29         -3.168         0.5786          50.14          47.12          92.08          101.7          136.4
    0.6194              -49.43          33.42          8.623          54.37         -3.196         0.6329          50.23          46.97          90.75          101.5          136.5
    0.6362              -49.37          33.38          8.976          54.46         -3.229         0.6985          50.33          46.79          89.13          101.3          136.6
    0.6529              -49.29          33.34          9.407          54.57          -3.27         0.7787          50.46          46.56          87.17          101.0          136.8
    0.6697              -49.19          33.29           9.94          54.71          -3.32         0.8776          50.62          46.28          84.74          100.6          136.9
    0.6864              -49.06          33.22           10.6          54.88         -3.382          1.001          50.81          45.94           81.7          100.1          137.1
    0.7031              -48.91          33.14          11.44           55.1         -3.461          1.156          51.06           45.5          77.89          99.56          137.4
